<?xml version="1.0" encoding="utf-8"?>
<!-- Generator: Adobe Illustrator 19.0.0, SVG Export Plug-In . SVG Version: 6.00 Build 0)  -->
<svg version="1.1" id="Layer_1" xmlns="http://www.w3.org/2000/svg" xmlns:xlink="http://www.w3.org/1999/xlink" x="0px" y="0px"
	 viewBox="0 0 512 490" style="enable-background:new 0 0 512 490;" xml:space="preserve">
<path id="path22" d="M238.8,170.4c0,0,12.9,1,23.8,14.9l-5.9,1l-3-1C253.6,185.3,244.7,174.4,238.8,170.4z M219,231.9L213,217h-2
	l-9.9,11.9C208.1,234.8,219,231.9,219,231.9z M310.1,144.7l-5,2l5.9,10.9l19.8,6.9C323,147.6,310.1,144.7,310.1,144.7z M253.6,165.5
	c5.9,6.9,11.9,16.8,11.9,16.8c9.9-9.9,30.7-13.9,57.5-12.9C285.4,161.5,253.6,165.5,253.6,165.5z M217,150.6c0,0,10.9,0,25.8,3
	c-9.9-6.9-25.8-10.9-25.8-10.9V150.6z M308.1,205.1L291.3,220l12.9,4l12.9-13.9l-6.9-3L308.1,205.1L308.1,205.1z M196.2,126.8
	c0,0,6.9,4,7.9,4s14.9,5,20.8,6.9c5,2,7.9,0,8.9,0c1,0,17.8-9.9,17.8-9.9c-14.9-5.9-28.7-9.9-28.7-9.9
	C221.9,117.9,196.2,126.8,196.2,126.8z M297.2,135.8c-1-2-3-2-14.9-4c-10.9-1-20.8-2-22.8-2c-2,0-3,1-3,1s-5.9,4-10.9,6.9
	s-5.9,4-6.9,5.9c-1,1,2,5,2,5l7.9,9.9c1,0,4,2,4,2s15.9-1,25.8-2h25.8c1,0,0-4-2-8.9C300.2,145.7,297.2,135.8,297.2,135.8z
	 M203.1,146.7c0,0,1,0,3,1c2,0,3-2,3-4c0-3-3-4-3-4h-2l-3,1l-1,6.9h1L203.1,146.7c-1-2-1-3-1-5c0-1,2-3,3-3c0,0,2,0,1,4
	C206.1,146.7,203.1,146.7,203.1,146.7z M370.6,224.9l-7.9,10.9v1h10.9C375.5,229.9,370.6,224.9,370.6,224.9z M172.4,173.4h-2l-5-1
	c-5-1-3-9.9-3-9.9l-5.9,2c-2-4-10.9-14.9-10.9-14.9l-2,7.9c1,1,5.9,8.9,6.9,10.9l-3,3c0,0-1,2-1,3s-1,2-1,2l-4,2h-1l-13.9-10.9v7.9
	h1c1,2,3,5.9,7.9,7.9c4,2,8.9,2,10.9,1c2,1,3,1,4,2c4,2,5,1,5,1l5.9-2h1l1-1l2-4c0,0,9.9,1,13.9,1c4-5.9,16.8-14.9,25.8-15.9
	c8.9,0,23.8,2,35.7,13.9c10.9,11.9,7.9,27.7,7.9,27.7l21.8,6.9l-9.9-6.9c-7.9-19.8-26.8-37.7-26.8-37.7s-5-1-7.9-1c-3-1-5-3-5-3
	s-1-1-3-4l-2-4c0,0-2-2-5-4c-3-2-13.9-3-19.8-4c-5.9-1-5.9,0-5.9,0c16.8,4,21.8,5,22.8,5.9c0,0,1,2,2,3c-13.9-3-26.8-1-29.7,0
	c2,3,2,6.9,0,9.9C178.3,170.4,172.4,173.4,172.4,173.4z M360.7,244.7l3,12.9c0,0,3-3,5.9-6.9c3-4,4-7.9,4-7.9l-11.9,1
	C361.6,243.8,360.7,244.7,360.7,244.7z M121.9,154.6l-1,10.9h5.9l1-6.9v4h1v-5.9h-1v-4l8.9,5l1,2l2,2h2l1-1v-1c-5.9,0-5.9-3-5.9-3
	s1-6.9,2-8.9s5-1,5-1l-1-1h-2c-2-1-7.9-5-9.9-5.9v-1l1-1v-4h1c0-1,1-1,1-2c2,0,16.8-3,16.8-3l-13.9-3v-1c-4-1-6.9-2-8.9-3
	c-5,5.9-6.9,13.9-6.9,13.9s-1,13.9-1,15.9C118.9,153.6,121.9,154.6,121.9,154.6L121.9,154.6z M354.7,232.9l2,3l1-1l7.9-9.9v-1
	C361.6,223.9,354.7,232.9,354.7,232.9z M330.9,215l-5.9-2l-13.9,15.9l9.9,3C323,223.9,330.9,215,330.9,215z M351.7,237.8
	c-5,9.9-4,16.8-4,16.8l5-10.9v-2C353.7,241.8,352.7,239.8,351.7,237.8z M346.8,173.4c0,0-2,4-3,5c-1,1-7.9,2-11.9,3
	c-4,2-10.9,5-12.9,6.9c-1,1-1,4-1,5c0,0,2,1,3,1l-8.9,7.9l2,2l21.8,6.9c5-4,11.9-5,11.9-5c-4-2-20.8-8.9-25.8-10.9c0,0-3-1-3-2v-3
	c0,0,12.9-9.9,32.7-9.9l3-5.9C354.7,174.4,346.8,173.4,346.8,173.4z M359.7,260.6l-4-11.9h-1l-5.9,10.9l1,1
	C354.7,262.6,359.7,260.6,359.7,260.6z M210.1,147.6l3,1c0,0,2,0,2-2v-4l-3-2l-4-1c1,1,1,2,1,2h1c0-1,1-1,1,0c0,0,2,1,1,4
	C213,146.7,211,147.6,210.1,147.6z M201.1,202.1c-6.9,12.9-2,21.8-2,21.8l8.9-12.9v-2C208.1,209.1,201.1,202.1,201.1,202.1z
	 M136.7,125.8l11.9,3c1,0,7.9-1,7.9-1l-18.8-5L136.7,125.8z M143.7,122.9c15.9,2,18.8,5,18.8,5s5.9-1,8.9-1
	c-5-4-26.8-10.9-26.8-10.9S143.7,118.9,143.7,122.9z M167.4,153.6c-3,2-5.9,7.9-5,12.9s2,5,5,5c-5-2-4-9.9,0-14.9c3-4,5.9-1,5.9-1
	S170.4,151.6,167.4,153.6z M97.1,300.2c-12.9,0-27.7,5-18.8,18.8c73.3,125.8,150.6,155.6,183.3,171.4c14.9-6.9,38.6-17.8,67.4-37.7
	c16.8-10.9,14.9-27.7,10.9-38.6C319,362.6,205.1,304.2,97.1,300.2z M510.3,65.4c-29.7-20.8-103-58.5-248.7-58.5
	c-50.5,0-93.1,5-126.8,11.9c7.9,12.9,11.9,27.7,11.9,43.6c0,21.8-7.9,41.6-20.8,56.5c3,1,6.9,2,11.9,3l2-5c0,0,2,0,3,1c0-5,3-5,3-5
	s0-1,1-1c5,1,18.8,7.9,24.8,10.9c5.9,3,5.9,4,5.9,4s13.9,0,17.8-1c4,0,10.9-3,20.8-5.9c9.9-3,11.9-4,13.9-4s19.8,1,35.7,3
	s30.7,7.9,33.7,9.9l5,1l1-3l-7.9-3c0,0,1-5,1-5.9c0-1,1-2,2-2c1,0,9.9,2,12.9,3c3,1,12.9,7.9,13.9,7.9c1,0,1,1,1,1c0,2-2,5.9-2,5.9
	l-3-1l3,1c0,0,3,1,4,2c1,1,4,3,6.9,5.9c3,2,2,5,2,5l6.9,6.9v3l16.8,16.8v1l-7.9,5c0,0,10.9-1,18.8,3c7.9,4,8.9,5.9,8.9,7.9
	c-2,1-5,2-5,2c-5.9,2-20.8,11.9-20.8,11.9v1l7.9,2c8.9-7.9,24.8-10.9,36.7-8.9c40.6,7.9,68.4,34.7,74.3,57.5c0,1,1,3,1,4
	C517.2,164.5,513.2,96.1,510.3,65.4L510.3,65.4z M367.6,210.1c1,1,2,1,3,2c5.9,4,8.9,5.9,9.9,14.9c1,6.9-1,16.8-5.9,25.8
	c27.7,18.8,66.4,4,81.2,18.8C452.8,233.8,397.3,196.2,367.6,210.1z M139.7,161.5l-2,1v7.9l2-1V161.5z M426.1,284.4
	c-20.8,0-41.6-6.9-56.5-24.8v1c-8.9,11.9-18.8,11.9-22.8,11.9c-4,0-16.8-5.9-21.8-11.9c-5-5.9-5-16.8-5-16.8l-19.8-6.9l-24.8-13.9
	l-4-1c-7.9,4-17.8,1-26.8-5.9c-1,4-5.9,13.9-11.9,18.8c-5.9,5-17.8,11.9-26.8,11.9c-8.9,0-28.7-9.9-34.7-23.8
	c-5.9-13.9,0-28.7,0-28.7l-9.9-2l-4-5c0,0-11.9,9.9-24.8,5.9c-12.9-4-23.8-14.9-26.8-24.8c-2-9.9,1-18.8,2-19.8
	c-2-6.9-2-10.9-2-10.9h-1v-3c-12.9,8.9-27.7,12.9-43.6,12.9c-17.8,0-34.7-5.9-48.6-14.9c2,21.8,7.9,47.6,15.9,76.3
	c10.9,39.6,46.6,52.5,100.1,61.4c117.9,18.8,230.9,109,222.9,164.5c29.7-24.8,61.4-61.4,93.1-115.9
	C457.8,298.2,445.9,284.4,426.1,284.4z M111,147.6l-1,10.9h6.9v-1h-1v-1h-1l1-2l1-5l-1-1v-2l1-1l1-11.9l-5-3
	c2-7.9,6.9-14.9,6.9-14.9h-3c-5,5.9-6.9,13.9-6.9,13.9s-1,12.9-1,14.9C109,147.6,111,147.6,111,147.6z M220,214l5,15.9
	c9.9-6.9,11.9-17.8,11.9-17.8l-15.9,1C221,213,220,214,220,214z M228.9,189.3l-7.9,13.9l1,1l15.9,1
	C237.8,194.2,228.9,189.3,228.9,189.3z M129.8,158.5l-1,5.9h1C129.8,164.5,129.8,158.5,129.8,158.5z M205.1,196.2l7.9,5.9l2-1
	l8.9-13.9C213,186.3,205.1,196.2,205.1,196.2z M131.8,159.5l-1-1v6.9h1C131.8,165.5,131.8,159.5,131.8,159.5z M134.8,161.5l-1,6.9h1
	V161.5z M136.7,162.5l-1,6.9h1V162.5z M132.8,160.5l-1,6.9h1V160.5z"/>
<circle id="circle40" cx="61.4" cy="62.4" r="61.4"/>
</svg>
